<svg width="81" height="36" viewBox="0 0 81 36" fill="none" xmlns="http://www.w3.org/2000/svg">
<g clip-path="url(#clip0_5_2)">
<path d="M19.3085 34.3403C18.6564 33.9104 17.8076 32.3582 16.8352 29.8209C16.6722 29.397 16.2956 28.4537 16.0033 27.7313C14.6261 24.3224 13.485 20.5731 12.7936 17.1462C12.6868 16.6328 12.5856 16.1015 12.5632 15.9701L12.5238 15.7313L12.4058 15.8865C12.3383 15.9701 11.8999 16.5074 11.4389 17.0806C9.7526 19.1582 7.62221 21.9821 5.29507 25.2298C4.6093 26.191 3.97412 27.0388 3.87856 27.1283C3.67058 27.3134 3.3839 27.403 2.99042 27.403C2.58008 27.403 2.41707 27.2358 2.41707 26.8C2.41707 26.5552 2.45642 26.4239 2.62505 26.1253C3.40076 24.7522 5.69979 21.2836 9.40972 15.8925C10.8937 13.7313 16.3068 6.2746 16.4473 6.19102C16.4923 6.16117 16.7509 6.12535 17.0263 6.10744C17.4985 6.07162 17.5266 6.07759 17.6109 6.2149C17.7627 6.44177 17.7346 6.91341 17.5491 7.28953C17.431 7.54028 17.3355 7.64774 17.1331 7.76117C16.987 7.84475 16.7621 8.05371 16.6216 8.23878C16.2 8.80595 14.4406 11.2179 13.7717 12.1492L13.1309 13.0448L13.7604 12.4059C17.1331 8.99699 20.8093 6.5552 23.513 5.92834C23.8559 5.85072 24.2269 5.82684 24.9577 5.82684C25.8233 5.82684 25.9751 5.83878 26.228 5.94625C26.6496 6.13132 26.9026 6.35819 27.0656 6.70446C27.1836 6.96117 27.2061 7.08654 27.2061 7.54625C27.2061 8.18505 27.1274 8.53729 26.852 9.11043C26.273 10.3343 24.9296 11.7134 22.9509 13.1104C21.7593 13.9582 20.4664 14.5612 18.8644 15.0089C17.9032 15.2836 15.9302 15.594 14.6542 15.6776C14.0246 15.7194 14.0022 15.7254 14.0246 15.8448C14.7722 19.4149 16.6272 25.2239 18.3023 29.2537C18.8194 30.5015 19.938 32.8955 20.0729 33.0507C20.1741 33.1642 20.2303 33.1761 20.5788 33.1462C20.933 33.1224 20.9836 33.1343 21.1072 33.2537C21.2196 33.3612 21.2477 33.4567 21.2477 33.6716C21.2477 33.9164 21.2196 33.9761 21.0229 34.1791L20.7924 34.4179L20.1348 34.4358C19.5727 34.4477 19.4546 34.4358 19.3085 34.3403ZM15.5985 14.4716C18.2124 14.1313 20.933 13.1045 22.4507 11.8925C24.092 10.5851 25.1263 9.42684 25.5816 8.39401C25.8852 7.70744 25.8008 7.39102 25.25 7.1164C24.9858 6.98505 24.8565 6.96117 24.508 6.96714C23.4906 6.98505 21.8267 7.74326 19.6851 9.17013C18.1505 10.1851 16.4136 11.6895 14.39 13.7552C14.0022 14.1492 13.6649 14.5134 13.6368 14.5612C13.5918 14.6328 13.6817 14.6388 14.2551 14.603C14.6205 14.5791 15.2219 14.5194 15.5985 14.4716Z" fill="white"/>
<path d="M18.5103 27.3373C18.1112 27.2119 18.0381 26.6865 18.3248 26.0418C18.7183 25.1522 19.7638 23.6537 20.9723 22.2328C22.1303 20.8776 22.7767 20.2567 24.2101 19.1403C24.2157 19.1403 23.9965 19.1343 23.7323 19.1403C23.3725 19.1403 23.1589 19.1761 22.9172 19.2716C22.7373 19.3433 22.5181 19.403 22.4282 19.403C22.3214 19.403 22.164 19.4806 22.001 19.6179C21.5176 20.006 21.3658 20.0597 20.7475 20.0597C20.0448 20.0597 20.0111 20.0358 20.0111 19.4507C20.0111 19.0746 20.0392 18.9612 20.2303 18.5373C20.6294 17.6657 21.5906 16.7224 22.2033 16.597C22.6474 16.5074 22.906 16.5254 23.0521 16.6507C23.1645 16.7463 23.187 16.8298 23.2039 17.2179C23.2151 17.4686 23.2489 17.6716 23.2713 17.6716C23.2938 17.6716 23.5243 17.4507 23.7829 17.1821C24.4967 16.4358 25.0476 16.1791 25.9133 16.1791C26.318 16.1791 26.3517 16.1671 26.5091 15.994C26.8239 15.6358 27.1274 15.5343 27.6164 15.6179C27.8132 15.6537 27.8244 15.6657 27.8244 15.8925C27.8244 16.197 27.7289 16.4298 27.3747 16.9851L27.0881 17.4388L27.4141 17.2537C27.594 17.1522 27.8975 16.9373 28.0886 16.7821C28.572 16.3761 28.9599 16.2328 29.6513 16.197C30.1909 16.1671 30.219 16.1612 30.4101 15.9701C30.7699 15.6119 31.006 15.5343 31.495 15.6179C31.6917 15.6537 31.703 15.6657 31.703 15.8925C31.703 16.191 31.5962 16.4597 31.2926 16.9134C31.1634 17.1164 31.0341 17.3194 31.0116 17.3552C30.9835 17.397 31.124 17.3492 31.3207 17.2537C31.5175 17.1522 31.7086 17.0746 31.7536 17.0746C31.7929 17.0746 32.0009 16.9373 32.2089 16.7761C32.4169 16.6089 32.7148 16.4358 32.8609 16.388C33.1701 16.2865 33.794 16.2686 33.9458 16.3582C34.0301 16.406 34.0582 16.3761 34.1144 16.1791C34.1875 15.9164 34.5079 15.6119 34.8396 15.4865C35.3005 15.3134 36.0144 15.4209 36.1099 15.6716C36.1886 15.8985 36.1436 16.5671 36.0312 16.794C35.9694 16.9134 35.9188 17.0268 35.9188 17.0448C35.9188 17.0627 35.9694 17.0746 36.0312 17.0746C36.1212 17.0746 36.1436 17.1164 36.1436 17.2776V17.4865L36.5146 17.3015C36.9306 17.0985 37.3578 17.0268 37.5433 17.1283C37.6445 17.188 37.6613 17.2537 37.6613 17.5283C37.6613 17.7074 37.6389 17.9045 37.6051 17.9642C37.5321 18.1074 36.5877 18.7582 36.0762 19.0149C35.4129 19.3492 34.7103 19.4388 34.3337 19.2358L34.1369 19.1283L33.3162 20.1433C32.8666 20.7045 32.4056 21.2895 32.2876 21.4507L32.0796 21.7313H31.613C30.9835 21.7313 30.9722 21.7254 30.9722 21.3254C30.9722 21.003 30.9779 20.9851 31.4219 20.406L31.8716 19.8209H31.2477C30.6687 19.8209 30.6237 19.8149 30.4944 19.6716C30.4158 19.594 30.3539 19.4567 30.3539 19.3671C30.3539 19.1761 30.3033 19.194 29.8593 19.5164C29.4433 19.8209 29.2185 20.0477 29.0442 20.3343C28.8531 20.6567 27.6052 22.4119 26.8239 23.4627C25.3174 25.4746 24.0021 26.9433 23.4287 27.2477C23.1139 27.4149 22.7767 27.4448 22.4169 27.3433C22.1415 27.2597 22.0347 27.0865 22.0347 26.7164C22.0347 26.3403 22.2314 25.8865 22.7879 24.997C23.929 23.1642 25.9245 20.8597 27.3747 19.7074C27.7626 19.397 28.083 19.1463 28.0886 19.1403C28.0942 19.1343 27.9425 19.1403 27.7514 19.1522C27.4815 19.1642 27.3523 19.1463 27.1836 19.0507L26.97 18.9313L26.6215 19.1164C25.9414 19.4806 25.413 19.9224 25.1656 20.3403C24.952 20.6985 23.513 22.7164 22.743 23.7313C21.2983 25.6358 20.101 26.9552 19.5502 27.2477C19.241 27.4149 18.8588 27.4448 18.5103 27.3373Z" fill="white"/>
<path d="M36.1942 27.1701C35.8738 27.1045 35.604 26.9612 35.5253 26.8119C35.4972 26.7463 35.4691 26.5492 35.4691 26.3761C35.4691 25.9761 35.6209 25.6298 36.1549 24.788C36.9025 23.6239 39.64 19.791 41.8659 16.794L42.4955 15.9403H41.6579C41.2026 15.9403 40.7417 15.9224 40.6461 15.9045C40.4831 15.8686 40.4719 15.8507 40.4775 15.588C40.4775 15.4388 40.5112 15.2179 40.5506 15.1045C40.6068 14.9313 40.663 14.8836 40.871 14.8239C41.3825 14.6627 42.0964 14.5671 42.7484 14.5671H43.423L44.6877 12.8239C45.7838 11.3074 48.1447 8.12536 48.9316 7.09252L49.1958 6.74625H47.9311C46.4359 6.74625 46.3178 6.72834 46.3178 6.51939C46.3178 6.2567 46.4415 5.92237 46.6045 5.75521L46.7563 5.59998L49.9266 5.54625C51.6635 5.52237 54.6371 5.49849 56.5201 5.49252C58.4088 5.49252 60.4605 5.47461 61.0901 5.45073L62.2312 5.41491L62.9057 4.57312C63.4566 3.88058 63.5746 3.70148 63.5746 3.54625C63.5746 3.29551 63.7601 3.06864 64.2098 2.75222C64.547 2.51939 64.5864 2.50745 64.9855 2.50745C65.2384 2.50745 65.4352 2.5373 65.4745 2.57909C65.5139 2.62088 65.542 2.7761 65.542 2.93133C65.542 3.19998 65.5139 3.25969 65.0811 3.83282C64.8281 4.17312 64.4515 4.66864 64.2435 4.93133L63.8613 5.41491L69.6285 5.44476C74.5132 5.46864 75.3958 5.48655 75.4407 5.55819C75.4688 5.60595 75.4913 5.77909 75.4913 5.94625C75.4913 6.52536 75.1597 6.74625 74.1985 6.79401C73.6982 6.81789 73.5914 6.80595 73.5296 6.72237C73.4621 6.63282 72.9731 6.62685 68.1839 6.62685H62.9169L62.6921 6.91342C61.1913 8.81192 57.9198 13.1582 56.5482 15.0746C56.1997 15.5701 55.8906 16 55.8625 16.0418C55.8287 16.0836 55.9917 16.0119 56.211 15.8925C56.6157 15.6716 56.6213 15.6716 57.3352 15.6716C57.9591 15.6716 58.0715 15.6836 58.1727 15.7851C58.4819 16.0836 58.3414 16.788 57.8748 17.2776C57.3464 17.8388 56.1547 18.5612 55.5421 18.6925C55.216 18.7642 55.1935 18.7821 55.143 18.9851C55.0699 19.2537 55.0755 19.3433 55.1598 19.5045L55.2273 19.6418L55.6207 19.4269C56.0929 19.1701 57.1047 18.4716 57.8298 17.9045C58.1896 17.6179 58.347 17.4567 58.347 17.3731C58.347 16.997 58.9765 16.191 59.4094 16.0179C59.5949 15.9403 59.8253 15.9104 60.2076 15.9104C60.6741 15.9104 60.7697 15.9283 60.8765 16.0298C60.9889 16.1373 61.0001 16.197 60.9777 16.5791C60.9552 17.0866 60.8708 17.206 60.2188 17.6776C59.8253 17.9642 59.8085 17.9821 59.8085 18.2089V18.4477L60.0839 18.3045C60.5729 18.0418 61.6466 17.3254 62.0738 16.9851C62.3829 16.7403 62.5628 16.6448 62.7876 16.597C63.2823 16.4955 63.5071 16.5194 63.6589 16.6866C63.7826 16.8119 63.7994 16.8836 63.7994 17.2836V17.7433L64.2604 17.2895L64.7157 16.8358H65.0754C65.4127 16.8358 65.452 16.8179 65.7275 16.591C65.8905 16.4537 66.1715 16.2627 66.357 16.1731C66.6437 16.0239 66.7674 16 67.1496 16C67.7061 16 67.7623 16.0477 67.7623 16.5313C67.7623 16.7642 67.723 16.9433 67.6386 17.1224C67.4756 17.4448 67.4756 17.4686 67.6555 17.3194C67.7736 17.2179 67.886 17.194 68.1783 17.194C68.6673 17.194 68.8022 17.2895 68.8022 17.6298C68.8022 17.7671 68.7685 17.9403 68.7291 18.0179C68.583 18.3045 67.0709 19.4866 66.3851 19.8567C66.0423 20.0358 65.9017 20.0776 65.5195 20.1015C65.2665 20.1194 64.963 20.1074 64.8393 20.0776L64.6145 20.0239V19.6836V19.3492L64.474 19.4448C64.3953 19.4985 64.2829 19.5761 64.221 19.6239C64.1086 19.7015 63.4341 19.7313 63.198 19.6657C63.1305 19.6477 63.0575 19.5761 63.0406 19.5164C62.9956 19.3671 62.8832 19.3731 62.6921 19.5463C62.6078 19.6239 62.3998 19.7731 62.2368 19.8746C61.9557 20.0477 61.9051 20.0597 61.3599 20.0597C60.7022 20.0597 60.6179 20.0119 60.5842 19.6358L60.5673 19.4209L59.9827 19.6537C59.6342 19.797 59.3363 19.9582 59.2407 20.0537C58.9541 20.3582 58.718 20.4358 57.9872 20.4657L57.3239 20.4955L57.3408 20.1851C57.352 20.0179 57.3577 19.8806 57.352 19.8806C57.3408 19.8806 57.2171 19.9582 57.071 20.0537C56.1941 20.6269 55.2891 20.9373 54.6764 20.8716C54.148 20.8179 53.9176 20.6388 53.7489 20.1612L53.6534 19.8925L52.8833 20.8239C52.0064 21.8985 51.0171 23.1821 50.1851 24.3343C49.5443 25.2119 49.4881 25.2537 48.926 25.2537C48.4988 25.2537 48.4257 25.1642 48.4651 24.6925C48.4876 24.4 48.555 24.2925 49.6343 22.7164C50.2638 21.797 50.9833 20.7463 51.2419 20.3821L51.7028 19.7194L51.4105 19.8328C50.9946 20 50.3425 19.9642 50.1908 19.7671C50.1346 19.6895 50.084 19.5403 50.084 19.4328V19.2418L49.8479 19.2895C49.4375 19.3731 49.0553 19.3492 48.8361 19.2298L48.6281 19.1224L48.021 19.8746C47.6838 20.2866 47.2228 20.8776 46.9924 21.1821L46.5708 21.7313L46.0368 21.7194L45.5028 21.7015L45.4859 21.3433L45.469 20.9851L45.9019 20.4179C46.4808 19.6597 47.3521 18.6089 47.9929 17.9045L48.5101 17.3313V16.8836C48.5101 16.4119 48.5775 16.1015 48.7293 15.9164C48.8192 15.8089 48.7855 15.803 47.3858 15.8448C46.5989 15.8627 45.5365 15.8985 45.025 15.9224L44.0975 15.9582L43.3105 17.0328C41.1689 19.9761 39.3252 22.603 37.9761 24.6567L37.088 25.994L37.251 26.0477C37.5939 26.1552 39.2521 26.0179 41.4556 25.6955C42.7878 25.5045 42.7765 25.5045 42.7765 25.3671C42.7765 25.3015 42.8721 25.188 43.0014 25.0985C43.215 24.9492 43.2543 24.9433 43.6478 24.9791C44.0413 25.0149 44.2268 25.0627 44.5922 25.206C44.7214 25.2597 44.7439 25.3015 44.7439 25.5164C44.7439 25.6477 44.7046 25.8866 44.654 26.0358L44.5584 26.3104L43.5691 26.5015C42.2257 26.7522 40.8879 26.9612 39.9098 27.0746C38.9711 27.1821 36.5765 27.2418 36.1942 27.1701ZM53.9176 16.5612L54.5134 15.7313L53.8894 15.7134C53.5409 15.7015 52.6753 15.7134 51.9614 15.7313L50.6573 15.7731L50.6348 16.2388C50.6236 16.5731 50.5899 16.7343 50.5168 16.8179C50.3987 16.9612 50.3931 17.0746 50.5055 17.0746C50.5618 17.0746 50.5899 17.1403 50.5899 17.2836C50.5899 17.397 50.6011 17.4925 50.618 17.4925C50.6292 17.4925 50.7754 17.4209 50.9384 17.3373C51.2756 17.1642 51.6129 16.7463 51.6579 16.4537C51.6972 16.1851 52.0289 16 52.4898 16C52.9507 16 53.0631 16.1074 53.0631 16.5552C53.0631 16.8477 53.035 16.9194 52.7259 17.391C52.5404 17.6776 52.3886 17.9224 52.3886 17.9343C52.3886 17.9522 52.5966 17.8328 52.8552 17.6776C53.288 17.4089 53.3554 17.3373 53.9176 16.5612ZM55.7669 13.988C57.1384 12.0895 59.3981 9.0567 60.764 7.28954L61.2924 6.60894L58.0322 6.64476C56.2447 6.66864 53.7939 6.68655 52.5854 6.68655H50.3931L50.41 7.01491C50.4325 7.34327 50.4325 7.34924 50.0221 7.92834C49.4825 8.69252 48.1391 10.5194 46.4134 12.8298C45.6489 13.8567 45.025 14.7104 45.0362 14.7164C45.0475 14.7283 46.6326 14.6985 48.5663 14.6567C50.4999 14.6089 52.7427 14.5671 53.5578 14.5671C54.9462 14.5671 55.0305 14.5731 55.0305 14.6746C55.0305 14.7701 55.0755 14.8657 55.1148 14.8657C55.1261 14.8657 55.4184 14.4716 55.7669 13.988Z" fill="white"/>
<path d="M53.7658 13.988C53.6421 13.8626 53.6815 13.4209 53.8276 13.2477C53.8838 13.1821 54.1255 13.0268 54.3729 12.8955C54.8001 12.6686 54.845 12.6567 55.3453 12.6567H55.8737V12.8238C55.8737 12.9134 55.8119 13.1761 55.7444 13.4089L55.6095 13.8209L55.1092 13.9522C54.4797 14.1134 53.8951 14.1313 53.7658 13.988Z" fill="white"/>
<path d="M0 18V0H40.5H81V18V36H40.5H0V18ZM20.8543 34C21.1128 33.7313 21.1297 33.6478 20.9554 33.4507C20.8149 33.2955 20.6913 33.2836 20.3371 33.397L20.0842 33.4746L19.9324 33.2776C19.7525 33.0388 18.662 30.7104 18.1337 29.4328C16.5541 25.6299 14.5811 19.5045 13.9459 16.4358C13.8504 15.9701 13.7717 15.5821 13.7717 15.5642C13.7717 15.5522 14.0752 15.5224 14.4462 15.4985C15.7166 15.4209 17.7177 15.1104 18.6958 14.8299C20.2978 14.3821 21.5906 13.7791 22.7823 12.9313C25.5535 10.9672 27.0319 9.09254 27.0375 7.54627C27.0375 6.88358 26.7058 6.40597 26.0594 6.13134C25.6715 5.96418 24.3731 5.95224 23.6817 6.11343C21.8604 6.52537 19.5164 7.80299 17.2343 9.62388C15.0533 11.3672 13.6761 12.7403 10.9387 15.8806C10.4609 16.4299 10.5058 16.3522 12.0797 14.1194C13.5356 12.0478 14.227 11.0925 15.6885 9.10448C16.5598 7.92239 16.7846 7.65373 16.9476 7.58806C17.3355 7.43881 17.6446 6.72239 17.4535 6.41194C17.3636 6.26269 17.3411 6.25672 17.0151 6.29851C16.8239 6.31642 16.6384 6.35821 16.5991 6.37612C16.4698 6.45373 10.978 14.0299 9.57835 16.0716C4.91846 22.8418 2.5857 26.4239 2.5857 26.8C2.5857 26.9731 2.82741 27.2239 2.99042 27.2239C3.22089 27.2239 3.53567 27.1045 3.70992 26.9493C3.80548 26.8597 4.44067 26.0119 5.12644 25.0507C7.9145 21.1582 11.0623 17.0388 12.3833 15.5522L12.6981 15.194L12.7037 15.4269C12.7037 15.9343 13.2602 18.5015 13.7773 20.4119C14.4462 22.8776 15.25 25.2657 16.1719 27.5522C16.4642 28.2746 16.8408 29.2179 17.0038 29.6418C17.7739 31.6478 18.4934 33.0985 19.0274 33.7194C19.4659 34.2328 19.5614 34.2746 20.1348 34.2567C20.6182 34.2388 20.6238 34.2388 20.8543 34ZM19.3815 27.0687C19.9324 26.7761 21.1297 25.4567 22.5743 23.5522C23.3444 22.5373 24.7834 20.5194 24.997 20.1612C25.2612 19.7134 25.7727 19.3015 26.6215 18.8478L27.133 18.5731L27.1949 18.7164C27.2848 18.9254 27.5883 19.009 27.9481 18.9313C28.2404 18.8597 28.6957 18.603 28.9318 18.3701C29.151 18.1612 29.1173 18.2806 28.8531 18.6746C28.6564 18.9672 28.4034 19.206 27.7176 19.7433C26.4585 20.7463 25.1375 22.1493 23.8672 23.8448C22.9847 25.0209 22.2033 26.3761 22.2033 26.7343C22.2033 26.9373 22.4338 27.1463 22.7036 27.194C22.8947 27.2299 22.9959 27.206 23.2432 27.0746C23.8278 26.7761 25.1263 25.3254 26.6552 23.2836C27.4366 22.2328 28.6845 20.4776 28.8756 20.1552C29.1229 19.7433 29.6513 19.3015 30.3483 18.9313C30.6462 18.7701 30.7024 18.7522 30.6631 18.8478C30.5282 19.194 30.5282 19.3552 30.6631 19.4985C30.7867 19.6299 30.8486 19.6418 31.3039 19.6418C31.6355 19.6418 31.9166 19.606 32.1471 19.5284C32.5405 19.397 32.5405 19.397 32.074 19.9701C31.4219 20.7701 31.1409 21.1761 31.1409 21.3313C31.1409 21.5104 31.2308 21.5522 31.6074 21.5522H31.8997L32.4675 20.8239C33.6423 19.3134 34.3561 18.4776 34.3449 18.6328C34.3224 18.9373 34.3449 18.991 34.5529 19.0866C34.9969 19.2776 35.7839 18.997 36.8463 18.2627C37.1442 18.0597 37.4084 17.8448 37.4365 17.7851C37.5321 17.606 37.504 17.3851 37.3803 17.3134C37.2229 17.2239 36.9981 17.3075 36.2786 17.7015L35.7052 18.0119L35.8064 17.7672C35.9863 17.3313 35.9975 17.2537 35.8795 17.2537C35.8176 17.2537 35.7221 17.2179 35.6659 17.1701C35.5591 17.0866 35.5591 17.0746 35.7446 16.8C35.9975 16.4299 36.0537 15.9642 35.8682 15.7672C35.8064 15.7015 35.6883 15.6299 35.6096 15.606C35.1937 15.4985 34.5248 15.8388 34.3224 16.2627C34.1988 16.5373 34.1313 17.2179 34.2269 17.3313C34.2774 17.397 34.1706 17.4925 33.7097 17.797C33.0577 18.2269 32.0684 18.7761 31.8491 18.8179C31.6805 18.8537 31.7086 18.7761 31.9953 18.4418C32.1414 18.2746 32.2876 18.191 32.6473 18.0657C33.2375 17.8687 33.7041 17.6299 33.8952 17.4209C34.1763 17.1284 34.1482 16.7403 33.8446 16.5672C33.4793 16.3701 32.9396 16.5134 32.3775 16.9552C32.1695 17.1164 31.9616 17.2537 31.9222 17.2537C31.7873 17.2537 31.169 17.5881 30.6012 17.9642C30.3033 18.1672 30.056 18.3284 30.0448 18.3284C30.0335 18.3284 30.2752 17.9821 30.5731 17.5522C31.1746 16.6985 31.4557 16.2269 31.5062 15.994C31.54 15.8507 31.5231 15.8328 31.332 15.803C31.0678 15.7552 30.8036 15.8985 30.472 16.2627C30.2921 16.4537 30.2078 16.5134 30.174 16.4597C30.1459 16.4119 29.9886 16.3881 29.6963 16.394C29.1398 16.4 28.7294 16.5672 28.2573 16.9612C28.0661 17.1164 27.7457 17.3433 27.5434 17.4567C27.341 17.5701 26.9532 17.809 26.6777 17.994C26.4079 18.1791 26.1718 18.3284 26.1662 18.3284C26.155 18.3284 26.391 17.9821 26.689 17.5582C27.2848 16.7164 27.5715 16.2328 27.6277 15.994C27.6614 15.8507 27.6446 15.8328 27.4534 15.803C27.1892 15.7552 26.9251 15.8985 26.5934 16.2627C26.436 16.4299 26.3236 16.5134 26.3011 16.4716C26.2449 16.3701 25.7952 16.3403 25.4467 16.4179C24.9296 16.5313 24.4686 16.8119 24.0077 17.3015C23.6367 17.6955 22.6643 18.4836 22.6137 18.4239C22.6024 18.4179 22.698 18.2209 22.8217 17.994C23.1196 17.4507 23.1196 16.9493 22.8217 16.7761C22.6137 16.6567 22.1246 16.8 21.7255 17.0985C20.9217 17.7075 20.1797 18.8358 20.1797 19.4507C20.1797 19.803 20.2809 19.8806 20.7475 19.8806C21.1803 19.8806 21.3827 19.797 21.8323 19.4388C21.9954 19.3015 22.1527 19.2239 22.2595 19.2239C22.4282 19.2239 23.1252 18.9731 23.2432 18.8657C23.2882 18.8239 23.3838 18.8358 23.5299 18.9015C23.7042 18.9791 23.7941 18.9851 24.0471 18.9313C24.3506 18.8657 24.8115 18.609 25.0532 18.3701C25.2725 18.1612 25.2387 18.2866 24.9802 18.6687C24.7834 18.9612 24.5305 19.2 23.8447 19.7433C22.5799 20.7463 21.259 22.1493 19.9886 23.8448C19.123 24.997 18.3248 26.3761 18.3248 26.7164C18.3248 26.9851 18.6002 27.2 18.9768 27.2179C19.0387 27.2239 19.2185 27.1522 19.3815 27.0687ZM39.7412 26.8955C40.7136 26.7821 42.0458 26.5731 43.4005 26.3164L44.3954 26.1313L44.4966 25.809C44.6146 25.4328 44.6146 25.4269 44.1537 25.2896C43.5691 25.1164 43.4005 25.1164 43.1588 25.2836C42.9901 25.403 42.9452 25.4687 42.9733 25.5522C42.9958 25.6179 43.0014 25.6716 42.9901 25.6716C42.9789 25.6716 42.4449 25.7493 41.7929 25.8507C40.1627 26.0896 39.2184 26.203 38.364 26.2448C37.5658 26.2866 36.762 26.2328 36.762 26.1373C36.762 25.9104 40.2414 20.8418 42.9171 17.1642C43.4679 16.4119 43.9176 15.7851 43.9232 15.7791C43.9289 15.7731 44.9294 15.7433 46.1492 15.7075C47.369 15.6716 48.645 15.6299 48.9766 15.6179L49.5893 15.594L49.342 15.7433C48.808 16.0657 48.645 16.406 48.6899 17.0866L48.718 17.4627L48.1784 18.0597C47.5264 18.7881 46.6551 19.8328 46.0705 20.597C45.7164 21.0627 45.6433 21.194 45.6545 21.3433C45.6714 21.5224 45.677 21.5224 46.0368 21.5403L46.4022 21.5522L46.9249 20.8716C47.9311 19.5582 49.0497 18.2328 48.8192 18.6209C48.7967 18.6627 48.7967 18.7582 48.8136 18.8418C48.8923 19.1761 49.4656 19.2358 50.1121 18.9791C50.2695 18.9134 50.3988 18.8657 50.3988 18.8657C50.4044 18.8657 50.3706 18.9851 50.3201 19.1343C50.247 19.3731 50.247 19.4149 50.3313 19.5463C50.5224 19.8567 50.9271 19.8209 51.8209 19.409C52.1019 19.2836 52.3324 19.194 52.3324 19.206C52.3324 19.2239 52.0232 19.6836 51.641 20.2328C49.9603 22.6388 48.6787 24.5373 48.6506 24.6746C48.5944 24.9075 48.7068 25.0746 48.926 25.0746C49.3026 25.0746 49.4207 24.9731 50.0165 24.1552C51.1407 22.603 53.3723 19.7731 53.777 19.3851C53.8895 19.2836 53.8895 19.2836 53.867 19.5642C53.822 20.0955 54.1817 20.591 54.6764 20.6746C55.3453 20.7881 56.7843 20.0836 58.1783 18.9552C58.6337 18.591 58.628 18.591 58.628 18.8179C58.628 18.991 58.5943 19.0328 58.3751 19.1582C57.8692 19.4448 57.6275 19.7254 57.5263 20.1612L57.487 20.3164L57.9929 20.2866C58.5381 20.2507 58.8192 20.1493 59.0721 19.8746C59.1677 19.7791 59.4543 19.6179 59.786 19.4866C60.0895 19.3672 60.4605 19.206 60.6067 19.1284L60.8652 18.9851L60.8146 19.1821C60.6685 19.7194 60.7922 19.8806 61.3599 19.8806C61.7309 19.8806 61.804 19.8627 62.0963 19.6716C62.2761 19.5582 62.4841 19.409 62.5628 19.3493C62.7371 19.206 63.2654 19.1224 63.2205 19.2418C63.1643 19.397 63.2823 19.4806 63.5971 19.5104C63.8894 19.5343 63.94 19.5224 64.2154 19.3254C64.3784 19.206 64.7382 18.9134 65.0136 18.6746C65.6881 18.0836 65.6994 18.0776 65.3452 18.5791C64.9911 19.0746 64.8112 19.4388 64.7944 19.6776C64.7831 19.8269 64.8056 19.8507 65.008 19.8985C65.705 20.0597 66.4863 19.6657 67.9984 18.3881C68.628 17.8507 68.7348 17.6657 68.5212 17.4806C68.4481 17.4209 68.3019 17.3731 68.1839 17.3731C68.004 17.3731 67.8579 17.4687 67.1215 18.0597C66.6493 18.4358 66.239 18.7642 66.2053 18.7821C66.1715 18.806 66.3458 18.5612 66.5931 18.2328C67.4475 17.1104 67.678 16.6567 67.5487 16.3642C67.4925 16.2328 67.4419 16.209 67.1833 16.191C66.8067 16.1672 66.402 16.3522 65.8399 16.8119C65.497 17.0925 65.4183 17.1343 65.3228 17.0806C65.0642 16.9313 64.9012 16.997 64.4403 17.4507C63.9737 17.9045 63.7432 18.0955 63.3779 18.3284L63.1586 18.4716L63.2767 18.2687C63.3385 18.1552 63.4453 17.9642 63.5128 17.8507C63.6421 17.6239 63.6702 17.1522 63.5746 16.9552C63.3947 16.597 62.8495 16.6806 62.2424 17.1642C61.5791 17.6955 59.8872 18.7463 59.696 18.7463C59.6623 18.7463 59.6398 18.603 59.6398 18.4119C59.6398 18.2328 59.6174 18.0299 59.5836 17.9701C59.5387 17.8806 59.5949 17.8209 59.9659 17.5582C60.5729 17.1343 60.7697 16.9075 60.8034 16.5851C60.8259 16.3761 60.809 16.3045 60.7078 16.209C60.5505 16.0597 59.9378 16.0478 59.5724 16.197C59.1452 16.3701 58.5156 17.1761 58.5156 17.5522C58.5156 17.6896 57.9029 18.197 56.8293 18.9433C55.6039 19.797 55.1205 19.9881 54.9856 19.6716C54.9013 19.4806 54.9013 19.0866 54.9743 18.806C55.0249 18.603 55.0474 18.5851 55.3734 18.5134C55.7332 18.4358 56.5257 18.0299 57.0822 17.6418C57.8242 17.1224 58.2627 16.4597 58.0997 16.1134C57.9929 15.8746 57.8017 15.8149 57.2734 15.8388C56.863 15.8507 56.7281 15.8866 56.4246 16.0478C55.9636 16.2866 55.4577 16.6925 54.7944 17.3552C54.5078 17.6478 54.2998 17.8388 54.3335 17.791C56.121 15.1761 60.0783 9.83284 62.5235 6.73433L62.7483 6.44776H68.1839C73.1417 6.44776 73.6307 6.45373 73.6982 6.54328C73.76 6.62687 73.85 6.63881 74.2153 6.60896C74.9292 6.55522 75.3958 6.22687 75.3058 5.83881L75.2665 5.68955L73.5408 5.65373C72.5852 5.62985 69.9208 5.61194 67.6049 5.61194H63.4003L63.9287 4.93731C64.8956 3.70746 65.3734 3.03881 65.3734 2.93134C65.3734 2.76418 65.2553 2.68657 64.9855 2.68657C64.7888 2.68657 64.6595 2.73433 64.3784 2.93134C63.9231 3.24776 63.732 3.48657 63.7545 3.70746C63.7657 3.85075 63.6589 4.01791 63.0856 4.73433L62.3998 5.59403L61.2587 5.62985C60.6291 5.65373 58.5774 5.67164 56.6888 5.67164C54.8057 5.67761 51.8321 5.70149 50.0952 5.72537L46.9249 5.7791L46.7731 5.93433C46.6888 6.02388 46.5876 6.18507 46.5595 6.29851L46.4977 6.50149L46.7338 6.53731C46.8575 6.55522 49.6961 6.54328 53.035 6.51343C56.374 6.47761 59.696 6.44776 60.4155 6.44776H61.7253L61.2924 6.99701C59.6904 9.05672 56.7787 12.9791 54.7607 15.803L53.5128 17.5403L52.546 18.1493C52.012 18.4896 51.5511 18.7761 51.523 18.794C51.4499 18.8358 51.5286 18.7104 51.8827 18.209C52.4954 17.3433 52.8945 16.6985 52.8945 16.5552C52.8945 16.3582 52.7034 16.1791 52.4898 16.1791C52.1975 16.1791 51.8602 16.4179 51.8265 16.6328C51.7703 17.009 51.4555 17.3313 50.8035 17.6836C50.4718 17.8627 50.1964 18.006 50.1964 18C50.1964 17.994 50.2357 17.9104 50.2807 17.809C50.3257 17.7134 50.3763 17.5522 50.3988 17.4567C50.4269 17.3015 50.4044 17.2716 50.2245 17.194L50.0165 17.1045L50.2245 16.8179C50.5505 16.3701 50.5674 15.8507 50.2638 15.6776C50.1233 15.594 50.1514 15.5881 50.7304 15.5761C51.0733 15.5761 52.0738 15.5522 52.962 15.5284L54.5808 15.4925L54.7158 15.3433C54.8563 15.194 54.8788 15.1164 54.8675 14.8836L54.8619 14.7463H53.704C53.0688 14.7463 50.7641 14.7881 48.5831 14.8418C46.4022 14.8896 44.609 14.9194 44.5978 14.9075C44.5865 14.8955 45.188 14.0716 45.93 13.0687C49.297 8.56119 50.2526 7.23582 50.2526 7.05672C50.2526 6.82388 49.8142 6.72239 49.4881 6.87761C49.3195 6.96119 48.0154 8.67463 45.5028 12.1194C43.2881 15.1582 43.4679 14.9254 43.2993 14.9254C43.1981 14.9254 43.1644 14.9015 43.1925 14.8358C43.26 14.6507 41.8266 14.7582 41.034 15.003C40.8035 15.0746 40.7811 15.1045 40.7024 15.3612C40.6574 15.5164 40.6405 15.6597 40.663 15.6836C40.6855 15.7134 41.197 15.7373 41.7985 15.7493C42.3999 15.7612 42.889 15.7791 42.889 15.797C42.889 15.809 42.5124 16.3224 42.057 16.9373C39.7187 20.0836 37.1049 23.7493 36.3235 24.9672C35.8795 25.6597 35.6378 26.1612 35.6378 26.3761C35.6378 26.6925 35.8795 26.8955 36.3629 26.991C36.7339 27.0627 38.7799 27.003 39.7412 26.8955ZM54.9406 13.7731L55.4409 13.6418L55.5702 13.2418L55.6994 12.8358H55.3509C55.0811 12.8358 54.9237 12.8776 54.6371 13.0209C53.9906 13.3433 53.7545 13.6179 53.9457 13.8209C54.0581 13.9403 54.3448 13.9284 54.9406 13.7731Z" fill="#121212"/>
<path d="M13.3108 14.5433C14.4237 13.2776 16.7059 11.1224 18.173 9.95225C19.2579 9.08658 21.2084 7.87464 22.3158 7.37912C23.2994 6.93733 23.8278 6.79404 24.508 6.7821C25.0364 6.77613 25.1319 6.79404 25.4186 6.93733C25.8289 7.14031 25.9414 7.32539 25.9414 7.79106C25.9357 8.83583 24.7328 10.3821 22.6193 12.0717C20.7137 13.594 17.3636 14.6567 14.0134 14.794L13.0522 14.8358L13.3108 14.5433Z" fill="#121212"/>
<path d="M19.612 25.9403C19.9661 25.2657 21.7255 22.8836 22.5687 21.9403L22.9397 21.5224L22.7036 21.8806C22.3495 22.406 20.562 24.8955 20.0673 25.5523C19.5052 26.2925 19.3703 26.406 19.612 25.9403Z" fill="#121212"/>
<path d="M23.4906 25.9403C23.7042 25.5284 24.2325 24.7642 25.0364 23.7015C25.8233 22.6627 26.9588 21.2717 26.8407 21.4926C26.7508 21.6597 24.5923 24.6866 24.0527 25.403C23.395 26.2866 23.232 26.4358 23.4906 25.9403Z" fill="#121212"/>
<path d="M21.8661 18.0895C21.8661 18.0597 21.9448 18.0298 22.0403 18.0298C22.1359 18.0298 22.1977 18.0537 22.1752 18.0895C22.1584 18.1254 22.0797 18.1492 22.001 18.1492C21.9279 18.1492 21.8661 18.1254 21.8661 18.0895Z" fill="#121212"/>
<path d="M24.789 17.7075C25.0476 17.4149 25.2556 17.2597 25.4748 17.1881C25.694 17.1224 25.6715 17.1463 25.0701 17.5821C24.6316 17.9045 24.6092 17.9105 24.789 17.7075Z" fill="#121212"/>
<path d="M28.6676 17.7075C28.9262 17.4149 29.1341 17.2597 29.3534 17.1881C29.5726 17.1224 29.5501 17.1463 28.9486 17.5821C28.5102 17.9045 28.4877 17.9105 28.6676 17.7075Z" fill="#121212"/>
<path d="M22.0628 17.7313C22.0797 17.7015 22.1584 17.6716 22.2371 17.6716C22.3101 17.6716 22.372 17.7015 22.372 17.7313C22.372 17.7672 22.2933 17.791 22.1977 17.791C22.1022 17.791 22.0403 17.7672 22.0628 17.7313Z" fill="#121212"/>
<path d="M34.9632 16.4478C34.9632 16.4 35.0138 16.3582 35.0756 16.3582C35.1375 16.3582 35.1881 16.3702 35.1881 16.3881C35.1881 16.4 35.1375 16.4418 35.0756 16.4776C34.9857 16.5313 34.9632 16.5254 34.9632 16.4478Z" fill="#121212"/>
<path d="M62.4504 18.0895C62.4504 18.0597 62.5291 18.0298 62.619 18.0298C62.7146 18.0298 62.7876 18.0597 62.7876 18.0895C62.7876 18.1254 62.7146 18.1492 62.619 18.1492C62.5291 18.1492 62.4504 18.1254 62.4504 18.0895Z" fill="#121212"/>
<path d="M55.2554 17.7074C55.424 17.5343 56.2503 16.9373 56.5089 16.794C56.9979 16.5373 56.9979 16.6567 56.5201 17.0686C56.0704 17.4507 55.4915 17.791 55.2835 17.791C55.1879 17.791 55.1879 17.7791 55.2554 17.7074Z" fill="#121212"/>
<path d="M62.6752 17.7313C62.6752 17.7015 62.7371 17.6716 62.8158 17.6716C62.8944 17.6716 62.9563 17.7015 62.9563 17.7313C62.9563 17.7672 62.8944 17.791 62.8158 17.791C62.7371 17.791 62.6752 17.7672 62.6752 17.7313Z" fill="#121212"/>
<path d="M49.4094 16.4895C49.4151 16.3821 49.505 16.3164 49.6006 16.3582C49.713 16.4 49.6905 16.4298 49.5106 16.4955C49.4544 16.5194 49.4094 16.5134 49.4094 16.4895Z" fill="#121212"/>
</g>
<defs>
<clipPath id="clip0_5_2">
<rect width="81" height="36" fill="white"/>
</clipPath>
</defs>
</svg>
