<svg version="1.0" xmlns="http://www.w3.org/2000/svg"
 width="250.9pt" height="120pt" viewBox="0 0 1391.927054 279.898991"
 preserveAspectRatio="xMidYMid meet">

<g transform="translate(-97.779254,326.000000) scale(0.100000,-0.100000)"
fill="#64FFDA" stroke="none">
<path d="M8282 3248 c-5 -7 -18 -47 -27 -89 l-18 -76 -81 -17 c-260 -55 -421
-137 -470 -240 -23 -50 -20 -122 9 -183 18 -39 30 -53 45 -53 31 0 35 25 10
81 -43 101 1 180 136 245 69 33 295 98 320 92 8 -2 0 -48 -22 -143 -43 -183
-167 -757 -195 -910 -13 -66 -24 -122 -26 -124 -2 -3 -101 -21 -221 -40 -191
-32 -217 -38 -220 -55 -6 -31 22 -45 71 -35 66 14 352 58 355 54 2 -1 -8 -72
-22 -156 -108 -665 -111 -1011 -10 -1101 50 -44 160 -45 320 -2 219 58 573
236 928 467 93 61 108 80 83 104 -14 14 -26 9 -129 -57 -245 -159 -571 -334
-760 -409 -117 -46 -223 -71 -305 -71 -64 0 -77 3 -97 24 -75 74 -63 455 30
1021 31 194 31 193 52 199 39 11 622 98 684 101 37 2 76 9 87 15 25 13 28 48
4 57 -17 7 -195 -17 -552 -73 -117 -19 -217 -34 -221 -34 -8 0 -7 12 27 185
72 375 209 974 227 991 30 30 508 58 861 51 219 -5 261 -8 271 -21 13 -19 94
-22 125 -6 24 14 25 46 0 59 -75 41 -829 42 -1166 2 -38 -5 -72 -7 -74 -5 -3
3 2 33 11 68 15 65 10 96 -16 96 -8 0 -18 -6 -24 -12z"/>
<path d="M1770 3180 c-257 -55 -491 -198 -575 -351 -36 -66 -44 -152 -21 -213
20 -52 37 -69 60 -60 20 8 20 27 0 81 -57 150 113 336 402 439 239 85 484 85
655 -1 70 -36 149 -117 184 -190 27 -54 30 -70 29 -160 0 -89 -3 -109 -32
-181 -118 -297 -471 -619 -831 -758 l-56 -22 -57 42 c-32 23 -78 50 -103 60
-25 9 -45 20 -45 24 0 4 54 226 120 494 66 268 120 493 120 500 0 24 -28 40
-44 27 -9 -7 -67 -224 -138 -512 l-123 -499 -51 0 c-98 0 -183 -40 -205 -98
-22 -58 47 -122 149 -138 23 -4 42 -10 42 -15 0 -4 -63 -270 -141 -590 -89
-370 -137 -585 -131 -591 13 -13 43 -6 53 12 5 8 67 258 139 555 72 297 135
557 141 577 9 36 10 36 76 44 37 4 91 12 121 19 l54 13 29 -32 c33 -36 92
-123 244 -356 173 -265 266 -365 400 -427 85 -38 208 -44 303 -14 93 30 146
62 150 89 5 34 -18 35 -88 4 -128 -58 -240 -65 -333 -23 -130 58 -227 165
-420 466 -67 105 -143 218 -169 253 l-47 62 42 17 c335 132 681 434 822 718
52 104 75 193 75 286 0 220 -164 403 -410 455 -92 19 -286 17 -390 -6z m-478
-1346 c6 -6 -17 -102 -26 -112 -11 -11 -114 19 -131 38 -17 19 -17 21 -1 39
26 28 140 54 158 35z m153 -50 c55 -31 61 -41 33 -50 -39 -12 -138 -21 -138
-12 0 5 5 29 11 54 13 50 17 51 94 8z"/>
<path d="M11345 2456 c-62 -27 -115 -113 -159 -258 -31 -102 -72 -303 -82
-403 -6 -67 -9 -72 -53 -114 -72 -68 -211 -156 -302 -191 -76 -29 -92 -32
-169 -28 -170 9 -222 76 -174 226 9 28 14 58 10 67 -8 22 -46 16 -60 -10 -16
-28 -42 -50 -123 -105 -193 -129 -529 -188 -600 -106 -25 29 -24 54 5 110 28
57 33 88 17 113 -20 30 -58 30 -127 -2 -57 -27 -128 -34 -128 -12 0 7 9 38 20
70 35 98 23 147 -34 147 -55 0 -116 -80 -116 -151 0 -30 37 -128 49 -130 3 0
15 -3 26 -6 45 -13 160 -7 193 11 19 10 36 15 39 12 3 -3 -2 -23 -11 -46 -34
-86 -11 -160 60 -196 56 -27 238 -25 349 4 105 28 209 71 279 116 31 20 59 36
61 36 3 0 5 -12 5 -27 1 -137 189 -227 378 -182 75 18 200 81 292 147 46 34
86 60 87 58 2 -2 -1 -47 -7 -100 -9 -74 -8 -101 1 -112 20 -24 36 -16 82 44
25 31 54 65 64 75 20 17 21 17 33 -12 8 -20 28 -38 59 -53 42 -21 59 -23 211
-22 138 0 179 4 250 23 104 28 201 68 273 114 51 33 54 34 49 12 -6 -31 57
-99 117 -126 136 -60 370 -16 582 111 45 28 84 50 86 50 1 0 3 -21 3 -46 0
-91 69 -150 163 -141 45 4 56 10 88 45 35 40 37 41 75 30 23 -6 84 -8 149 -5
141 6 248 40 358 113 42 29 77 50 77 48 0 -2 -11 -52 -25 -111 -14 -59 -23
-113 -21 -120 11 -29 47 -9 133 76 96 94 152 131 202 131 26 0 38 -10 80 -67
79 -108 149 -145 272 -144 118 1 237 52 374 161 83 66 98 84 90 109 -10 33
-47 25 -90 -20 -52 -52 -154 -120 -231 -152 -80 -34 -149 -43 -215 -27 -54 13
-74 30 -190 159 -40 45 -50 51 -85 51 -50 -1 -117 -31 -176 -81 -46 -39 -74
-50 -65 -26 2 6 10 38 18 71 12 57 12 59 -10 77 -13 11 -28 19 -35 19 -6 0
-38 -23 -71 -51 -69 -58 -172 -110 -265 -135 -67 -18 -213 -24 -262 -11 -27 7
-28 10 -28 73 0 56 -3 68 -25 89 -32 33 -41 32 -80 -10 -54 -56 -54 -95 -3
-166 28 -40 -29 -81 -82 -59 -49 20 -65 52 -51 101 13 43 75 119 96 119 26 0
46 30 35 51 -13 24 -47 24 -83 0 -16 -10 -36 -17 -45 -15 -10 3 -49 -22 -92
-56 -41 -33 -110 -79 -154 -101 -75 -39 -220 -91 -229 -82 -3 2 -2 33 1 68 l5
65 -44 42 c-25 24 -61 56 -82 71 -51 38 -49 65 9 127 48 52 55 83 17 88 -16 2
-56 -30 -155 -124 -73 -70 -137 -139 -143 -153 -14 -37 -38 -55 -140 -105
-111 -56 -207 -82 -344 -96 -154 -16 -291 5 -291 43 0 24 69 77 148 115 82 39
96 57 64 83 -17 13 -30 15 -58 9 -81 -19 -181 -75 -251 -142 -92 -89 -95 -1
-5 152 137 233 249 480 267 587 16 102 -44 157 -130 119z m65 -88 c0 -53 -47
-179 -122 -329 -43 -87 -75 -139 -85 -139 -18 0 -14 32 22 187 46 193 108 313
164 313 17 0 21 -6 21 -32z m-2054 -529 c-9 -22 -15 -27 -15 -16 -1 21 18 61
25 54 3 -3 -2 -20 -10 -38z m2930 -110 c16 -17 50 -47 76 -67 51 -39 63 -60
53 -93 -8 -25 -77 -59 -120 -59 -40 0 -104 31 -134 64 -14 14 -31 26 -40 26
-10 0 -7 8 12 28 15 15 27 34 27 42 0 17 69 90 85 90 6 0 24 -14 41 -31z m844
-94 c0 -8 -4 -15 -10 -15 -5 0 -10 7 -10 15 0 8 5 15 10 15 6 0 10 -7 10 -15z"/>
<path d="M6052 1944 c-51 -36 -77 -134 -51 -201 9 -24 7 -30 -13 -47 -48 -38
-213 -130 -296 -163 -148 -60 -230 -76 -362 -70 -172 7 -275 49 -282 117 -3
24 0 25 57 31 176 17 291 113 243 202 -18 34 -40 46 -83 47 -52 0 -128 -36
-192 -91 -125 -108 -170 -129 -269 -129 -52 0 -74 6 -130 35 -37 19 -73 35
-80 35 -7 0 -36 -20 -64 -45 -28 -25 -55 -45 -60 -45 -10 0 -15 18 -24 84 -10
76 -54 86 -81 19 -28 -70 -81 -164 -110 -194 -64 -68 -97 -5 -50 95 34 73 101
131 174 152 91 26 102 36 78 67 -11 16 -18 17 -67 6 -70 -14 -120 -43 -195
-113 -75 -71 -114 -89 -197 -94 -73 -5 -124 8 -178 44 -19 13 -42 24 -52 24
-10 0 -40 -20 -68 -45 -28 -25 -55 -45 -60 -45 -10 0 -15 18 -24 84 -7 48 -29
75 -52 61 -9 -6 -26 -33 -37 -61 -36 -82 -97 -181 -122 -194 -94 -50 -59 121
42 210 29 25 66 46 102 56 91 26 102 36 78 68 -12 16 -17 16 -76 3 -37 -9 -83
-29 -115 -51 -29 -20 -56 -36 -60 -36 -5 0 -30 -18 -56 -40 -133 -111 -268
-162 -432 -163 -131 -1 -138 4 -138 84 0 46 -5 63 -23 85 -29 34 -58 27 -92
-24 -33 -49 -33 -101 1 -141 l25 -31 -25 -25 c-14 -14 -32 -25 -41 -25 -28 0
-76 30 -85 55 -20 52 39 152 106 180 36 15 43 35 19 55 -23 19 -71 2 -116 -43
-105 -105 -104 -238 1 -292 65 -33 162 -6 189 52 9 19 15 22 43 15 18 -4 85
-7 148 -7 132 1 222 23 327 81 34 19 63 34 66 34 2 0 0 -17 -6 -38 -13 -48 -3
-87 28 -118 52 -52 128 -21 196 79 l42 62 -5 -48 c-4 -29 -16 -62 -32 -85
-144 -204 -223 -346 -250 -449 -22 -84 -20 -124 7 -164 24 -36 44 -44 83 -35
58 15 146 213 205 456 17 74 36 151 40 170 10 40 141 190 166 190 9 0 40 -12
70 -26 67 -33 167 -42 235 -21 l47 15 -5 -42 c-7 -48 13 -98 45 -116 56 -30
122 3 181 92 39 58 40 59 40 29 0 -45 -20 -84 -94 -186 -130 -178 -224 -403
-203 -487 20 -79 87 -101 138 -47 60 64 135 265 184 489 15 69 33 134 40 145
26 42 137 155 152 155 9 0 40 -12 69 -26 89 -44 194 -43 302 2 8 4 12 -5 12
-28 0 -76 70 -133 205 -168 228 -58 506 13 798 203 83 54 88 56 139 50 38 -4
69 0 113 15 33 11 61 19 62 18 1 -1 -7 -26 -18 -56 -26 -68 -19 -112 25 -156
45 -45 100 -58 221 -51 197 11 404 94 554 220 22 18 31 34 29 49 -5 38 -32 32
-104 -23 -140 -106 -345 -178 -514 -181 -144 -2 -184 37 -140 136 58 129 19
182 -93 125 -51 -26 -143 -32 -140 -9 1 8 12 47 24 87 21 68 22 72 6 97 -20
30 -60 35 -95 10z m14 -121 l-16 -28 6 30 c8 38 17 52 21 38 3 -7 -3 -24 -11
-40z m-778 -49 c2 -14 -7 -29 -23 -42 -33 -26 -127 -62 -161 -62 -24 0 -24 1
-8 24 32 50 133 109 174 103 8 -1 16 -12 18 -23z m-2598 -141 c0 -19 -3 -24
-10 -17 -6 6 -8 18 -4 27 9 24 14 21 14 -10z m825 -325 c-11 -48 -67 -212
-104 -298 -58 -140 -91 -172 -91 -91 0 46 24 116 79 236 70 151 133 234 116
153z m830 0 c-26 -124 -158 -437 -180 -427 -5 2 -10 27 -10 54 1 36 13 79 47
158 76 179 162 307 143 215z"/>
<path d="M10363 1917 c-65 -49 -54 -109 14 -74 15 8 39 27 53 41 19 21 22 30
14 44 -17 26 -35 24 -81 -11z"/>
</g>
</svg>
